<mxfile host="Electron" modified="2023-04-27T23:48:42.326Z" agent="Mozilla/5.0 (Windows NT 10.0; Win64; x64) AppleWebKit/537.36 (KHTML, like Gecko) draw.io/21.2.1 Chrome/112.0.5615.87 Electron/24.1.2 Safari/537.36" etag="AGUnks9x4pohg9RaHPtr" version="21.2.1" type="device">
  <diagram id="R2lEEEUBdFMjLlhIrx00" name="Page-1">
    <mxGraphModel dx="1038" dy="622" grid="1" gridSize="10" guides="1" tooltips="1" connect="1" arrows="1" fold="1" page="1" pageScale="1" pageWidth="850" pageHeight="1100" math="0" shadow="0" extFonts="Permanent Marker^https://fonts.googleapis.com/css?family=Permanent+Marker">
      <root>
        <mxCell id="0" />
        <mxCell id="1" parent="0" />
        <mxCell id="vnxCuMvwRM67W45ZYCET-4" value="" style="rounded=0;whiteSpace=wrap;html=1;" parent="1" vertex="1">
          <mxGeometry x="320" y="120" width="180" height="260" as="geometry" />
        </mxCell>
        <mxCell id="vnxCuMvwRM67W45ZYCET-6" value="" style="rounded=0;whiteSpace=wrap;html=1;" parent="1" vertex="1">
          <mxGeometry x="330" y="120" width="160" height="40" as="geometry" />
        </mxCell>
        <mxCell id="vnxCuMvwRM67W45ZYCET-8" value="bug_ticket_id" style="text;html=1;strokeColor=default;fillColor=none;align=center;verticalAlign=middle;whiteSpace=wrap;rounded=0;" parent="1" vertex="1">
          <mxGeometry x="320" y="170" width="180" height="20" as="geometry" />
        </mxCell>
        <mxCell id="vnxCuMvwRM67W45ZYCET-9" value="bug_date" style="text;html=1;strokeColor=default;fillColor=none;align=center;verticalAlign=middle;whiteSpace=wrap;rounded=0;" parent="1" vertex="1">
          <mxGeometry x="320" y="190" width="180" height="20" as="geometry" />
        </mxCell>
        <mxCell id="vnxCuMvwRM67W45ZYCET-127" style="edgeStyle=orthogonalEdgeStyle;rounded=0;orthogonalLoop=1;jettySize=auto;html=1;exitX=1;exitY=0.5;exitDx=0;exitDy=0;entryX=0;entryY=0.5;entryDx=0;entryDy=0;endArrow=ERoneToMany;endFill=0;" parent="1" source="vnxCuMvwRM67W45ZYCET-10" target="vnxCuMvwRM67W45ZYCET-35" edge="1">
          <mxGeometry relative="1" as="geometry" />
        </mxCell>
        <mxCell id="vnxCuMvwRM67W45ZYCET-10" value="submit_people_id" style="text;html=1;strokeColor=default;fillColor=none;align=center;verticalAlign=middle;whiteSpace=wrap;rounded=0;" parent="1" vertex="1">
          <mxGeometry x="320" y="210" width="180" height="20" as="geometry" />
        </mxCell>
        <mxCell id="vnxCuMvwRM67W45ZYCET-11" value="version_number" style="text;html=1;strokeColor=default;fillColor=none;align=center;verticalAlign=middle;whiteSpace=wrap;rounded=0;" parent="1" vertex="1">
          <mxGeometry x="320" y="230" width="180" height="20" as="geometry" />
        </mxCell>
        <mxCell id="vnxCuMvwRM67W45ZYCET-12" value="bug_area_name" style="text;html=1;strokeColor=default;fillColor=none;align=center;verticalAlign=middle;whiteSpace=wrap;rounded=0;" parent="1" vertex="1">
          <mxGeometry x="320" y="250" width="180" height="20" as="geometry" />
        </mxCell>
        <mxCell id="vnxCuMvwRM67W45ZYCET-13" value="bug_description" style="text;html=1;strokeColor=default;fillColor=none;align=center;verticalAlign=middle;whiteSpace=wrap;rounded=0;" parent="1" vertex="1">
          <mxGeometry x="320" y="270" width="180" height="20" as="geometry" />
        </mxCell>
        <mxCell id="vnxCuMvwRM67W45ZYCET-14" value="BugTicketTable" style="text;html=1;strokeColor=none;fillColor=none;align=center;verticalAlign=middle;whiteSpace=wrap;rounded=0;" parent="1" vertex="1">
          <mxGeometry x="340" y="125" width="140" height="30" as="geometry" />
        </mxCell>
        <mxCell id="vnxCuMvwRM67W45ZYCET-15" value="" style="rounded=0;whiteSpace=wrap;html=1;" parent="1" vertex="1">
          <mxGeometry x="620" y="590" width="160" height="260" as="geometry" />
        </mxCell>
        <mxCell id="vnxCuMvwRM67W45ZYCET-16" value="" style="rounded=0;whiteSpace=wrap;html=1;" parent="1" vertex="1">
          <mxGeometry x="640" y="590" width="120" height="30" as="geometry" />
        </mxCell>
        <mxCell id="vnxCuMvwRM67W45ZYCET-17" value="people_id" style="text;html=1;strokeColor=default;fillColor=none;align=center;verticalAlign=middle;whiteSpace=wrap;rounded=0;" parent="1" vertex="1">
          <mxGeometry x="620" y="620" width="160" height="20" as="geometry" />
        </mxCell>
        <mxCell id="vnxCuMvwRM67W45ZYCET-18" value="manufacturer" style="text;html=1;strokeColor=default;fillColor=none;align=center;verticalAlign=middle;whiteSpace=wrap;rounded=0;" parent="1" vertex="1">
          <mxGeometry x="620" y="640" width="160" height="20" as="geometry" />
        </mxCell>
        <mxCell id="vnxCuMvwRM67W45ZYCET-19" value="model_number" style="text;html=1;strokeColor=default;fillColor=none;align=center;verticalAlign=middle;whiteSpace=wrap;rounded=0;" parent="1" vertex="1">
          <mxGeometry x="620" y="660" width="160" height="20" as="geometry" />
        </mxCell>
        <mxCell id="vnxCuMvwRM67W45ZYCET-20" value="cpu" style="text;html=1;strokeColor=default;fillColor=none;align=center;verticalAlign=middle;whiteSpace=wrap;rounded=0;" parent="1" vertex="1">
          <mxGeometry x="620" y="700" width="160" height="20" as="geometry" />
        </mxCell>
        <mxCell id="vnxCuMvwRM67W45ZYCET-21" value="primary_graphics_card" style="text;html=1;strokeColor=default;fillColor=none;align=center;verticalAlign=middle;whiteSpace=wrap;rounded=0;" parent="1" vertex="1">
          <mxGeometry x="620" y="720" width="160" height="20" as="geometry" />
        </mxCell>
        <mxCell id="vnxCuMvwRM67W45ZYCET-22" value="additional_graphics_card" style="text;html=1;strokeColor=default;fillColor=none;align=center;verticalAlign=middle;whiteSpace=wrap;rounded=0;" parent="1" vertex="1">
          <mxGeometry x="620" y="740" width="160" height="20" as="geometry" />
        </mxCell>
        <mxCell id="vnxCuMvwRM67W45ZYCET-23" value="ComputerInformation" style="text;html=1;strokeColor=none;fillColor=none;align=center;verticalAlign=middle;whiteSpace=wrap;rounded=0;" parent="1" vertex="1">
          <mxGeometry x="640" y="590" width="120" height="30" as="geometry" />
        </mxCell>
        <mxCell id="vnxCuMvwRM67W45ZYCET-24" value="" style="rounded=0;whiteSpace=wrap;html=1;" parent="1" vertex="1">
          <mxGeometry x="40" y="315" width="140" height="85" as="geometry" />
        </mxCell>
        <mxCell id="vnxCuMvwRM67W45ZYCET-25" value="" style="rounded=0;whiteSpace=wrap;html=1;" parent="1" vertex="1">
          <mxGeometry x="50" y="315" width="120" height="30" as="geometry" />
        </mxCell>
        <mxCell id="vnxCuMvwRM67W45ZYCET-131" style="edgeStyle=orthogonalEdgeStyle;rounded=0;orthogonalLoop=1;jettySize=auto;html=1;exitX=0;exitY=0.5;exitDx=0;exitDy=0;entryX=1;entryY=0.5;entryDx=0;entryDy=0;dashed=1;endArrow=ERoneToMany;endFill=0;" parent="1" source="vnxCuMvwRM67W45ZYCET-80" target="vnxCuMvwRM67W45ZYCET-26" edge="1">
          <mxGeometry relative="1" as="geometry">
            <Array as="points">
              <mxPoint x="250" y="300" />
              <mxPoint x="250" y="355" />
            </Array>
          </mxGeometry>
        </mxCell>
        <mxCell id="vnxCuMvwRM67W45ZYCET-26" value="bug_status_id" style="text;html=1;strokeColor=default;fillColor=none;align=center;verticalAlign=middle;whiteSpace=wrap;rounded=0;" parent="1" vertex="1">
          <mxGeometry x="40" y="345" width="140" height="20" as="geometry" />
        </mxCell>
        <mxCell id="vnxCuMvwRM67W45ZYCET-27" value="bug_status" style="text;html=1;strokeColor=default;fillColor=none;align=center;verticalAlign=middle;whiteSpace=wrap;rounded=0;" parent="1" vertex="1">
          <mxGeometry x="40" y="365" width="140" height="20" as="geometry" />
        </mxCell>
        <mxCell id="vnxCuMvwRM67W45ZYCET-32" value="BugStatusTable" style="text;html=1;strokeColor=none;fillColor=none;align=center;verticalAlign=middle;whiteSpace=wrap;rounded=0;" parent="1" vertex="1">
          <mxGeometry x="50" y="315" width="120" height="30" as="geometry" />
        </mxCell>
        <mxCell id="vnxCuMvwRM67W45ZYCET-33" value="" style="rounded=0;whiteSpace=wrap;html=1;" parent="1" vertex="1">
          <mxGeometry x="630" y="105" width="140" height="340" as="geometry" />
        </mxCell>
        <mxCell id="vnxCuMvwRM67W45ZYCET-34" value="" style="rounded=0;whiteSpace=wrap;html=1;" parent="1" vertex="1">
          <mxGeometry x="640" y="105" width="120" height="30" as="geometry" />
        </mxCell>
        <mxCell id="vnxCuMvwRM67W45ZYCET-139" style="edgeStyle=orthogonalEdgeStyle;rounded=0;orthogonalLoop=1;jettySize=auto;html=1;exitX=1;exitY=0.5;exitDx=0;exitDy=0;entryX=1;entryY=0.5;entryDx=0;entryDy=0;endArrow=ERoneToMany;endFill=0;" parent="1" source="vnxCuMvwRM67W45ZYCET-35" target="vnxCuMvwRM67W45ZYCET-17" edge="1">
          <mxGeometry relative="1" as="geometry">
            <Array as="points">
              <mxPoint x="810" y="145" />
              <mxPoint x="810" y="630" />
            </Array>
          </mxGeometry>
        </mxCell>
        <mxCell id="vnxCuMvwRM67W45ZYCET-35" value="people_id" style="text;html=1;strokeColor=default;fillColor=none;align=center;verticalAlign=middle;whiteSpace=wrap;rounded=0;" parent="1" vertex="1">
          <mxGeometry x="630" y="135" width="140" height="20" as="geometry" />
        </mxCell>
        <mxCell id="vnxCuMvwRM67W45ZYCET-36" value="first_name" style="text;html=1;strokeColor=default;fillColor=none;align=center;verticalAlign=middle;whiteSpace=wrap;rounded=0;" parent="1" vertex="1">
          <mxGeometry x="630" y="155" width="140" height="20" as="geometry" />
        </mxCell>
        <mxCell id="vnxCuMvwRM67W45ZYCET-37" value="last_name" style="text;html=1;strokeColor=default;fillColor=none;align=center;verticalAlign=middle;whiteSpace=wrap;rounded=0;" parent="1" vertex="1">
          <mxGeometry x="630" y="175" width="140" height="20" as="geometry" />
        </mxCell>
        <mxCell id="vnxCuMvwRM67W45ZYCET-38" value="address1" style="text;html=1;strokeColor=default;fillColor=none;align=center;verticalAlign=middle;whiteSpace=wrap;rounded=0;" parent="1" vertex="1">
          <mxGeometry x="630" y="195" width="140" height="20" as="geometry" />
        </mxCell>
        <mxCell id="vnxCuMvwRM67W45ZYCET-39" value="address2" style="text;html=1;strokeColor=default;fillColor=none;align=center;verticalAlign=middle;whiteSpace=wrap;rounded=0;" parent="1" vertex="1">
          <mxGeometry x="630" y="215" width="140" height="20" as="geometry" />
        </mxCell>
        <mxCell id="vnxCuMvwRM67W45ZYCET-40" value="city" style="text;html=1;strokeColor=default;fillColor=none;align=center;verticalAlign=middle;whiteSpace=wrap;rounded=0;" parent="1" vertex="1">
          <mxGeometry x="630" y="235" width="140" height="20" as="geometry" />
        </mxCell>
        <mxCell id="vnxCuMvwRM67W45ZYCET-41" value="PeopleTable" style="text;html=1;strokeColor=none;fillColor=none;align=center;verticalAlign=middle;whiteSpace=wrap;rounded=0;" parent="1" vertex="1">
          <mxGeometry x="640" y="105" width="120" height="30" as="geometry" />
        </mxCell>
        <mxCell id="vnxCuMvwRM67W45ZYCET-42" value="" style="rounded=0;whiteSpace=wrap;html=1;" parent="1" vertex="1">
          <mxGeometry x="630" y="470" width="140" height="100" as="geometry" />
        </mxCell>
        <mxCell id="vnxCuMvwRM67W45ZYCET-43" value="" style="rounded=0;whiteSpace=wrap;html=1;" parent="1" vertex="1">
          <mxGeometry x="640" y="470" width="120" height="30" as="geometry" />
        </mxCell>
        <mxCell id="vnxCuMvwRM67W45ZYCET-44" value="version_number" style="text;html=1;strokeColor=default;fillColor=none;align=center;verticalAlign=middle;whiteSpace=wrap;rounded=0;" parent="1" vertex="1">
          <mxGeometry x="630" y="500" width="140" height="20" as="geometry" />
        </mxCell>
        <mxCell id="vnxCuMvwRM67W45ZYCET-45" value="version_start_date" style="text;html=1;strokeColor=default;fillColor=none;align=center;verticalAlign=middle;whiteSpace=wrap;rounded=0;" parent="1" vertex="1">
          <mxGeometry x="630" y="520" width="140" height="20" as="geometry" />
        </mxCell>
        <mxCell id="vnxCuMvwRM67W45ZYCET-46" value="version_end_date" style="text;html=1;strokeColor=default;fillColor=none;align=center;verticalAlign=middle;whiteSpace=wrap;rounded=0;" parent="1" vertex="1">
          <mxGeometry x="630" y="540" width="140" height="20" as="geometry" />
        </mxCell>
        <mxCell id="vnxCuMvwRM67W45ZYCET-50" value="Product Version" style="text;html=1;strokeColor=none;fillColor=none;align=center;verticalAlign=middle;whiteSpace=wrap;rounded=0;" parent="1" vertex="1">
          <mxGeometry x="640" y="470" width="120" height="30" as="geometry" />
        </mxCell>
        <mxCell id="vnxCuMvwRM67W45ZYCET-51" value="" style="rounded=0;whiteSpace=wrap;html=1;" parent="1" vertex="1">
          <mxGeometry x="40" y="25" width="140" height="85" as="geometry" />
        </mxCell>
        <mxCell id="vnxCuMvwRM67W45ZYCET-52" value="" style="rounded=0;whiteSpace=wrap;html=1;" parent="1" vertex="1">
          <mxGeometry x="50" y="25" width="120" height="30" as="geometry" />
        </mxCell>
        <mxCell id="vnxCuMvwRM67W45ZYCET-130" style="edgeStyle=orthogonalEdgeStyle;rounded=0;orthogonalLoop=1;jettySize=auto;html=1;exitX=0;exitY=0.5;exitDx=0;exitDy=0;entryX=1;entryY=0.5;entryDx=0;entryDy=0;endArrow=ERoneToMany;endFill=0;" parent="1" source="vnxCuMvwRM67W45ZYCET-12" target="vnxCuMvwRM67W45ZYCET-53" edge="1">
          <mxGeometry relative="1" as="geometry">
            <Array as="points">
              <mxPoint x="300" y="260" />
              <mxPoint x="300" y="65" />
            </Array>
          </mxGeometry>
        </mxCell>
        <mxCell id="vnxCuMvwRM67W45ZYCET-53" value="area_name" style="text;html=1;strokeColor=default;fillColor=none;align=center;verticalAlign=middle;whiteSpace=wrap;rounded=0;" parent="1" vertex="1">
          <mxGeometry x="40" y="55" width="140" height="20" as="geometry" />
        </mxCell>
        <mxCell id="vnxCuMvwRM67W45ZYCET-138" style="edgeStyle=orthogonalEdgeStyle;rounded=0;orthogonalLoop=1;jettySize=auto;html=1;exitX=1;exitY=0.5;exitDx=0;exitDy=0;dashed=1;dashPattern=8 8;endArrow=ERoneToMany;endFill=0;" parent="1" source="vnxCuMvwRM67W45ZYCET-54" edge="1">
          <mxGeometry relative="1" as="geometry">
            <mxPoint x="630" y="510" as="targetPoint" />
            <Array as="points">
              <mxPoint x="280" y="85" />
              <mxPoint x="280" y="510" />
              <mxPoint x="630" y="510" />
            </Array>
          </mxGeometry>
        </mxCell>
        <mxCell id="vnxCuMvwRM67W45ZYCET-54" value="first_version" style="text;html=1;strokeColor=default;fillColor=none;align=center;verticalAlign=middle;whiteSpace=wrap;rounded=0;" parent="1" vertex="1">
          <mxGeometry x="40" y="75" width="140" height="20" as="geometry" />
        </mxCell>
        <mxCell id="vnxCuMvwRM67W45ZYCET-59" value="Product Area" style="text;html=1;strokeColor=none;fillColor=none;align=center;verticalAlign=middle;whiteSpace=wrap;rounded=0;" parent="1" vertex="1">
          <mxGeometry x="50" y="25" width="120" height="30" as="geometry" />
        </mxCell>
        <mxCell id="vnxCuMvwRM67W45ZYCET-69" value="" style="rounded=0;whiteSpace=wrap;html=1;" parent="1" vertex="1">
          <mxGeometry x="40" y="130" width="140" height="160" as="geometry" />
        </mxCell>
        <mxCell id="vnxCuMvwRM67W45ZYCET-70" value="" style="rounded=0;whiteSpace=wrap;html=1;" parent="1" vertex="1">
          <mxGeometry x="50" y="130" width="120" height="30" as="geometry" />
        </mxCell>
        <mxCell id="vnxCuMvwRM67W45ZYCET-71" value="feature_id" style="text;html=1;strokeColor=default;fillColor=none;align=center;verticalAlign=middle;whiteSpace=wrap;rounded=0;" parent="1" vertex="1">
          <mxGeometry x="40" y="160" width="140" height="20" as="geometry" />
        </mxCell>
        <mxCell id="vnxCuMvwRM67W45ZYCET-136" style="edgeStyle=orthogonalEdgeStyle;rounded=0;orthogonalLoop=1;jettySize=auto;html=1;exitX=0;exitY=0.5;exitDx=0;exitDy=0;entryX=1;entryY=0.5;entryDx=0;entryDy=0;endArrow=ERoneToMany;endFill=0;" parent="1" source="vnxCuMvwRM67W45ZYCET-44" target="vnxCuMvwRM67W45ZYCET-72" edge="1">
          <mxGeometry relative="1" as="geometry">
            <Array as="points">
              <mxPoint x="230" y="510" />
              <mxPoint x="230" y="190" />
            </Array>
          </mxGeometry>
        </mxCell>
        <mxCell id="vnxCuMvwRM67W45ZYCET-72" value="first_version" style="text;html=1;strokeColor=default;fillColor=none;align=center;verticalAlign=middle;whiteSpace=wrap;rounded=0;" parent="1" vertex="1">
          <mxGeometry x="40" y="180" width="140" height="20" as="geometry" />
        </mxCell>
        <mxCell id="vnxCuMvwRM67W45ZYCET-73" value="feature_name" style="text;html=1;strokeColor=default;fillColor=none;align=center;verticalAlign=middle;whiteSpace=wrap;rounded=0;" parent="1" vertex="1">
          <mxGeometry x="40" y="200" width="140" height="20" as="geometry" />
        </mxCell>
        <mxCell id="vnxCuMvwRM67W45ZYCET-135" style="edgeStyle=orthogonalEdgeStyle;rounded=0;orthogonalLoop=1;jettySize=auto;html=1;exitX=0;exitY=0.5;exitDx=0;exitDy=0;entryX=0;entryY=0.5;entryDx=0;entryDy=0;endArrow=ERoneToMany;endFill=0;" parent="1" source="vnxCuMvwRM67W45ZYCET-53" target="vnxCuMvwRM67W45ZYCET-74" edge="1">
          <mxGeometry relative="1" as="geometry" />
        </mxCell>
        <mxCell id="vnxCuMvwRM67W45ZYCET-74" value="feature_area" style="text;html=1;strokeColor=default;fillColor=none;align=center;verticalAlign=middle;whiteSpace=wrap;rounded=0;" parent="1" vertex="1">
          <mxGeometry x="40" y="220" width="140" height="20" as="geometry" />
        </mxCell>
        <mxCell id="vnxCuMvwRM67W45ZYCET-75" value="feature_description" style="text;html=1;strokeColor=default;fillColor=none;align=center;verticalAlign=middle;whiteSpace=wrap;rounded=0;" parent="1" vertex="1">
          <mxGeometry x="40" y="240" width="140" height="20" as="geometry" />
        </mxCell>
        <mxCell id="vnxCuMvwRM67W45ZYCET-76" value="last_version" style="text;html=1;strokeColor=default;fillColor=none;align=center;verticalAlign=middle;whiteSpace=wrap;rounded=0;" parent="1" vertex="1">
          <mxGeometry x="40" y="260" width="140" height="20" as="geometry" />
        </mxCell>
        <mxCell id="vnxCuMvwRM67W45ZYCET-77" value="Feature List" style="text;html=1;strokeColor=none;fillColor=none;align=center;verticalAlign=middle;whiteSpace=wrap;rounded=0;" parent="1" vertex="1">
          <mxGeometry x="50" y="130" width="120" height="30" as="geometry" />
        </mxCell>
        <mxCell id="vnxCuMvwRM67W45ZYCET-78" value="bug_last_worked_date" style="text;html=1;strokeColor=default;fillColor=none;align=center;verticalAlign=middle;whiteSpace=wrap;rounded=0;" parent="1" vertex="1">
          <mxGeometry x="320" y="330" width="180" height="20" as="geometry" />
        </mxCell>
        <mxCell id="vnxCuMvwRM67W45ZYCET-79" value="bug_assigned_to" style="text;html=1;strokeColor=default;fillColor=none;align=center;verticalAlign=middle;whiteSpace=wrap;rounded=0;" parent="1" vertex="1">
          <mxGeometry x="320" y="310" width="180" height="20" as="geometry" />
        </mxCell>
        <mxCell id="vnxCuMvwRM67W45ZYCET-80" value="bug_status_id" style="text;html=1;strokeColor=default;fillColor=none;align=center;verticalAlign=middle;whiteSpace=wrap;rounded=0;" parent="1" vertex="1">
          <mxGeometry x="320" y="290" width="180" height="20" as="geometry" />
        </mxCell>
        <mxCell id="vnxCuMvwRM67W45ZYCET-81" value="bug_last_worked_employee" style="text;html=1;strokeColor=default;fillColor=none;align=center;verticalAlign=middle;whiteSpace=wrap;rounded=0;" parent="1" vertex="1">
          <mxGeometry x="320" y="350" width="180" height="20" as="geometry" />
        </mxCell>
        <mxCell id="vnxCuMvwRM67W45ZYCET-85" value="state" style="text;html=1;strokeColor=default;fillColor=none;align=center;verticalAlign=middle;whiteSpace=wrap;rounded=0;" parent="1" vertex="1">
          <mxGeometry x="630" y="255" width="140" height="20" as="geometry" />
        </mxCell>
        <mxCell id="vnxCuMvwRM67W45ZYCET-86" value="zip" style="text;html=1;strokeColor=default;fillColor=none;align=center;verticalAlign=middle;whiteSpace=wrap;rounded=0;" parent="1" vertex="1">
          <mxGeometry x="630" y="275" width="140" height="20" as="geometry" />
        </mxCell>
        <mxCell id="vnxCuMvwRM67W45ZYCET-87" value="phone_number" style="text;html=1;strokeColor=default;fillColor=none;align=center;verticalAlign=middle;whiteSpace=wrap;rounded=0;" parent="1" vertex="1">
          <mxGeometry x="630" y="295" width="140" height="20" as="geometry" />
        </mxCell>
        <mxCell id="vnxCuMvwRM67W45ZYCET-88" value="email" style="text;html=1;strokeColor=default;fillColor=none;align=center;verticalAlign=middle;whiteSpace=wrap;rounded=0;" parent="1" vertex="1">
          <mxGeometry x="630" y="315" width="140" height="20" as="geometry" />
        </mxCell>
        <mxCell id="vnxCuMvwRM67W45ZYCET-89" value="hire_date" style="text;html=1;strokeColor=default;fillColor=none;align=center;verticalAlign=middle;whiteSpace=wrap;rounded=0;" parent="1" vertex="1">
          <mxGeometry x="630" y="335" width="140" height="20" as="geometry" />
        </mxCell>
        <mxCell id="vnxCuMvwRM67W45ZYCET-90" value="manager_id" style="text;html=1;strokeColor=default;fillColor=none;align=center;verticalAlign=middle;whiteSpace=wrap;rounded=0;" parent="1" vertex="1">
          <mxGeometry x="630" y="355" width="140" height="20" as="geometry" />
        </mxCell>
        <mxCell id="vnxCuMvwRM67W45ZYCET-91" value="termnation_date" style="text;html=1;strokeColor=default;fillColor=none;align=center;verticalAlign=middle;whiteSpace=wrap;rounded=0;" parent="1" vertex="1">
          <mxGeometry x="630" y="375" width="140" height="20" as="geometry" />
        </mxCell>
        <mxCell id="vnxCuMvwRM67W45ZYCET-92" value="pay" style="text;html=1;strokeColor=default;fillColor=none;align=center;verticalAlign=middle;whiteSpace=wrap;rounded=0;" parent="1" vertex="1">
          <mxGeometry x="630" y="395" width="140" height="20" as="geometry" />
        </mxCell>
        <mxCell id="vnxCuMvwRM67W45ZYCET-128" style="edgeStyle=orthogonalEdgeStyle;rounded=0;orthogonalLoop=1;jettySize=auto;html=1;exitX=1;exitY=0.5;exitDx=0;exitDy=0;entryX=1;entryY=0.5;entryDx=0;entryDy=0;endArrow=ERoneToMany;endFill=0;" parent="1" source="vnxCuMvwRM67W45ZYCET-93" target="vnxCuMvwRM67W45ZYCET-44" edge="1">
          <mxGeometry relative="1" as="geometry" />
        </mxCell>
        <mxCell id="vnxCuMvwRM67W45ZYCET-93" value="version" style="text;html=1;strokeColor=default;fillColor=none;align=center;verticalAlign=middle;whiteSpace=wrap;rounded=0;" parent="1" vertex="1">
          <mxGeometry x="630" y="415" width="140" height="20" as="geometry" />
        </mxCell>
        <mxCell id="vnxCuMvwRM67W45ZYCET-95" value="ram_type" style="text;html=1;strokeColor=default;fillColor=none;align=center;verticalAlign=middle;whiteSpace=wrap;rounded=0;" parent="1" vertex="1">
          <mxGeometry x="620" y="760" width="160" height="20" as="geometry" />
        </mxCell>
        <mxCell id="vnxCuMvwRM67W45ZYCET-96" value="ram_gb" style="text;html=1;strokeColor=default;fillColor=none;align=center;verticalAlign=middle;whiteSpace=wrap;rounded=0;" parent="1" vertex="1">
          <mxGeometry x="620" y="780" width="160" height="20" as="geometry" />
        </mxCell>
        <mxCell id="vnxCuMvwRM67W45ZYCET-97" value="ip_address" style="text;html=1;strokeColor=default;fillColor=none;align=center;verticalAlign=middle;whiteSpace=wrap;rounded=0;" parent="1" vertex="1">
          <mxGeometry x="620" y="800" width="160" height="20" as="geometry" />
        </mxCell>
        <mxCell id="vnxCuMvwRM67W45ZYCET-112" value="" style="rounded=0;whiteSpace=wrap;html=1;" parent="1" vertex="1">
          <mxGeometry x="30" y="570" width="180" height="260" as="geometry" />
        </mxCell>
        <mxCell id="vnxCuMvwRM67W45ZYCET-113" value="" style="rounded=0;whiteSpace=wrap;html=1;" parent="1" vertex="1">
          <mxGeometry x="40" y="570" width="160" height="40" as="geometry" />
        </mxCell>
        <mxCell id="vnxCuMvwRM67W45ZYCET-114" value="bug_ticket_id" style="text;html=1;strokeColor=default;fillColor=none;align=center;verticalAlign=middle;whiteSpace=wrap;rounded=0;" parent="1" vertex="1">
          <mxGeometry x="30" y="620" width="180" height="20" as="geometry" />
        </mxCell>
        <mxCell id="vnxCuMvwRM67W45ZYCET-115" value="bug_date" style="text;html=1;strokeColor=default;fillColor=none;align=center;verticalAlign=middle;whiteSpace=wrap;rounded=0;" parent="1" vertex="1">
          <mxGeometry x="30" y="640" width="180" height="20" as="geometry" />
        </mxCell>
        <mxCell id="vnxCuMvwRM67W45ZYCET-116" value="submit_people_id" style="text;html=1;strokeColor=default;fillColor=none;align=center;verticalAlign=middle;whiteSpace=wrap;rounded=0;" parent="1" vertex="1">
          <mxGeometry x="30" y="660" width="180" height="20" as="geometry" />
        </mxCell>
        <mxCell id="vnxCuMvwRM67W45ZYCET-117" value="version_number" style="text;html=1;strokeColor=default;fillColor=none;align=center;verticalAlign=middle;whiteSpace=wrap;rounded=0;" parent="1" vertex="1">
          <mxGeometry x="30" y="680" width="180" height="20" as="geometry" />
        </mxCell>
        <mxCell id="vnxCuMvwRM67W45ZYCET-118" value="bug_area_name" style="text;html=1;strokeColor=default;fillColor=none;align=center;verticalAlign=middle;whiteSpace=wrap;rounded=0;" parent="1" vertex="1">
          <mxGeometry x="30" y="700" width="180" height="20" as="geometry" />
        </mxCell>
        <mxCell id="vnxCuMvwRM67W45ZYCET-119" value="bug_description" style="text;html=1;strokeColor=default;fillColor=none;align=center;verticalAlign=middle;whiteSpace=wrap;rounded=0;" parent="1" vertex="1">
          <mxGeometry x="30" y="720" width="180" height="20" as="geometry" />
        </mxCell>
        <mxCell id="vnxCuMvwRM67W45ZYCET-120" value="BugTicketArchive" style="text;html=1;strokeColor=none;fillColor=none;align=center;verticalAlign=middle;whiteSpace=wrap;rounded=0;" parent="1" vertex="1">
          <mxGeometry x="50" y="575" width="140" height="30" as="geometry" />
        </mxCell>
        <mxCell id="vnxCuMvwRM67W45ZYCET-121" value="bug_last_worked_date" style="text;html=1;strokeColor=default;fillColor=none;align=center;verticalAlign=middle;whiteSpace=wrap;rounded=0;" parent="1" vertex="1">
          <mxGeometry x="30" y="780" width="180" height="20" as="geometry" />
        </mxCell>
        <mxCell id="vnxCuMvwRM67W45ZYCET-122" value="bug_assigned_to" style="text;html=1;strokeColor=default;fillColor=none;align=center;verticalAlign=middle;whiteSpace=wrap;rounded=0;" parent="1" vertex="1">
          <mxGeometry x="30" y="760" width="180" height="20" as="geometry" />
        </mxCell>
        <mxCell id="vnxCuMvwRM67W45ZYCET-123" value="bug_status_id" style="text;html=1;strokeColor=default;fillColor=none;align=center;verticalAlign=middle;whiteSpace=wrap;rounded=0;" parent="1" vertex="1">
          <mxGeometry x="30" y="740" width="180" height="20" as="geometry" />
        </mxCell>
        <mxCell id="vnxCuMvwRM67W45ZYCET-124" value="bug_last_worked_employee" style="text;html=1;strokeColor=default;fillColor=none;align=center;verticalAlign=middle;whiteSpace=wrap;rounded=0;" parent="1" vertex="1">
          <mxGeometry x="30" y="800" width="180" height="20" as="geometry" />
        </mxCell>
        <mxCell id="vnxCuMvwRM67W45ZYCET-132" style="edgeStyle=orthogonalEdgeStyle;rounded=0;orthogonalLoop=1;jettySize=auto;html=1;exitX=1;exitY=0.5;exitDx=0;exitDy=0;entryX=0;entryY=0.5;entryDx=0;entryDy=0;dashed=1;endArrow=ERoneToMany;endFill=0;" parent="1" source="vnxCuMvwRM67W45ZYCET-11" target="vnxCuMvwRM67W45ZYCET-44" edge="1">
          <mxGeometry relative="1" as="geometry">
            <Array as="points">
              <mxPoint x="600" y="240" />
              <mxPoint x="600" y="510" />
            </Array>
          </mxGeometry>
        </mxCell>
        <mxCell id="ZWpQNsOtJIIs9eqi_sKM-1" value="operating_system" style="text;html=1;strokeColor=default;fillColor=none;align=center;verticalAlign=middle;whiteSpace=wrap;rounded=0;" parent="1" vertex="1">
          <mxGeometry x="620" y="680" width="160" height="20" as="geometry" />
        </mxCell>
        <mxCell id="unGdx2NInlWbnndOkcG5-1" value="" style="rounded=0;whiteSpace=wrap;html=1;" parent="1" vertex="1">
          <mxGeometry x="220" y="570" width="180" height="320" as="geometry" />
        </mxCell>
        <mxCell id="unGdx2NInlWbnndOkcG5-2" value="" style="rounded=0;whiteSpace=wrap;html=1;" parent="1" vertex="1">
          <mxGeometry x="230" y="570" width="160" height="40" as="geometry" />
        </mxCell>
        <mxCell id="unGdx2NInlWbnndOkcG5-3" value="bug_ticket_id" style="text;html=1;strokeColor=default;fillColor=none;align=center;verticalAlign=middle;whiteSpace=wrap;rounded=0;" parent="1" vertex="1">
          <mxGeometry x="220" y="620" width="180" height="20" as="geometry" />
        </mxCell>
        <mxCell id="unGdx2NInlWbnndOkcG5-4" value="bug_date" style="text;html=1;strokeColor=default;fillColor=none;align=center;verticalAlign=middle;whiteSpace=wrap;rounded=0;" parent="1" vertex="1">
          <mxGeometry x="220" y="640" width="180" height="20" as="geometry" />
        </mxCell>
        <mxCell id="unGdx2NInlWbnndOkcG5-5" value="submit_people_id" style="text;html=1;strokeColor=default;fillColor=none;align=center;verticalAlign=middle;whiteSpace=wrap;rounded=0;" parent="1" vertex="1">
          <mxGeometry x="220" y="660" width="180" height="20" as="geometry" />
        </mxCell>
        <mxCell id="unGdx2NInlWbnndOkcG5-6" value="version_number" style="text;html=1;strokeColor=default;fillColor=none;align=center;verticalAlign=middle;whiteSpace=wrap;rounded=0;" parent="1" vertex="1">
          <mxGeometry x="220" y="680" width="180" height="20" as="geometry" />
        </mxCell>
        <mxCell id="unGdx2NInlWbnndOkcG5-7" value="bug_area_name" style="text;html=1;strokeColor=default;fillColor=none;align=center;verticalAlign=middle;whiteSpace=wrap;rounded=0;" parent="1" vertex="1">
          <mxGeometry x="220" y="700" width="180" height="20" as="geometry" />
        </mxCell>
        <mxCell id="unGdx2NInlWbnndOkcG5-8" value="bug_description" style="text;html=1;strokeColor=default;fillColor=none;align=center;verticalAlign=middle;whiteSpace=wrap;rounded=0;" parent="1" vertex="1">
          <mxGeometry x="220" y="720" width="180" height="20" as="geometry" />
        </mxCell>
        <mxCell id="unGdx2NInlWbnndOkcG5-9" value="BugTicketAudit" style="text;html=1;strokeColor=none;fillColor=none;align=center;verticalAlign=middle;whiteSpace=wrap;rounded=0;" parent="1" vertex="1">
          <mxGeometry x="240" y="575" width="140" height="30" as="geometry" />
        </mxCell>
        <mxCell id="unGdx2NInlWbnndOkcG5-10" value="bug_last_worked_date" style="text;html=1;strokeColor=default;fillColor=none;align=center;verticalAlign=middle;whiteSpace=wrap;rounded=0;" parent="1" vertex="1">
          <mxGeometry x="220" y="780" width="180" height="20" as="geometry" />
        </mxCell>
        <mxCell id="unGdx2NInlWbnndOkcG5-11" value="bug_assigned_to" style="text;html=1;strokeColor=default;fillColor=none;align=center;verticalAlign=middle;whiteSpace=wrap;rounded=0;" parent="1" vertex="1">
          <mxGeometry x="220" y="760" width="180" height="20" as="geometry" />
        </mxCell>
        <mxCell id="unGdx2NInlWbnndOkcG5-12" value="bug_status_id" style="text;html=1;strokeColor=default;fillColor=none;align=center;verticalAlign=middle;whiteSpace=wrap;rounded=0;" parent="1" vertex="1">
          <mxGeometry x="220" y="740" width="180" height="20" as="geometry" />
        </mxCell>
        <mxCell id="unGdx2NInlWbnndOkcG5-13" value="bug_last_worked_employee" style="text;html=1;strokeColor=default;fillColor=none;align=center;verticalAlign=middle;whiteSpace=wrap;rounded=0;" parent="1" vertex="1">
          <mxGeometry x="220" y="800" width="180" height="20" as="geometry" />
        </mxCell>
        <mxCell id="unGdx2NInlWbnndOkcG5-27" value="action_date" style="text;html=1;strokeColor=default;fillColor=none;align=center;verticalAlign=middle;whiteSpace=wrap;rounded=0;" parent="1" vertex="1">
          <mxGeometry x="220" y="840" width="180" height="20" as="geometry" />
        </mxCell>
        <mxCell id="unGdx2NInlWbnndOkcG5-28" value="action_type" style="text;html=1;strokeColor=default;fillColor=none;align=center;verticalAlign=middle;whiteSpace=wrap;rounded=0;" parent="1" vertex="1">
          <mxGeometry x="220" y="820" width="180" height="20" as="geometry" />
        </mxCell>
        <mxCell id="unGdx2NInlWbnndOkcG5-29" value="action_user" style="text;html=1;strokeColor=default;fillColor=none;align=center;verticalAlign=middle;whiteSpace=wrap;rounded=0;" parent="1" vertex="1">
          <mxGeometry x="220" y="860" width="180" height="20" as="geometry" />
        </mxCell>
        <mxCell id="unGdx2NInlWbnndOkcG5-30" value="" style="rounded=0;whiteSpace=wrap;html=1;" parent="1" vertex="1">
          <mxGeometry x="410" y="570" width="140" height="400" as="geometry" />
        </mxCell>
        <mxCell id="unGdx2NInlWbnndOkcG5-31" value="" style="rounded=0;whiteSpace=wrap;html=1;" parent="1" vertex="1">
          <mxGeometry x="420" y="570" width="120" height="30" as="geometry" />
        </mxCell>
        <mxCell id="unGdx2NInlWbnndOkcG5-32" value="people_id" style="text;html=1;strokeColor=default;fillColor=none;align=center;verticalAlign=middle;whiteSpace=wrap;rounded=0;" parent="1" vertex="1">
          <mxGeometry x="410" y="600" width="140" height="20" as="geometry" />
        </mxCell>
        <mxCell id="unGdx2NInlWbnndOkcG5-33" value="first_name" style="text;html=1;strokeColor=default;fillColor=none;align=center;verticalAlign=middle;whiteSpace=wrap;rounded=0;" parent="1" vertex="1">
          <mxGeometry x="410" y="620" width="140" height="20" as="geometry" />
        </mxCell>
        <mxCell id="unGdx2NInlWbnndOkcG5-34" value="last_name" style="text;html=1;strokeColor=default;fillColor=none;align=center;verticalAlign=middle;whiteSpace=wrap;rounded=0;" parent="1" vertex="1">
          <mxGeometry x="410" y="640" width="140" height="20" as="geometry" />
        </mxCell>
        <mxCell id="unGdx2NInlWbnndOkcG5-35" value="address1" style="text;html=1;strokeColor=default;fillColor=none;align=center;verticalAlign=middle;whiteSpace=wrap;rounded=0;" parent="1" vertex="1">
          <mxGeometry x="410" y="660" width="140" height="20" as="geometry" />
        </mxCell>
        <mxCell id="unGdx2NInlWbnndOkcG5-36" value="address2" style="text;html=1;strokeColor=default;fillColor=none;align=center;verticalAlign=middle;whiteSpace=wrap;rounded=0;" parent="1" vertex="1">
          <mxGeometry x="410" y="680" width="140" height="20" as="geometry" />
        </mxCell>
        <mxCell id="unGdx2NInlWbnndOkcG5-37" value="city" style="text;html=1;strokeColor=default;fillColor=none;align=center;verticalAlign=middle;whiteSpace=wrap;rounded=0;" parent="1" vertex="1">
          <mxGeometry x="410" y="700" width="140" height="20" as="geometry" />
        </mxCell>
        <mxCell id="unGdx2NInlWbnndOkcG5-38" value="PeopleAudit" style="text;html=1;strokeColor=none;fillColor=none;align=center;verticalAlign=middle;whiteSpace=wrap;rounded=0;" parent="1" vertex="1">
          <mxGeometry x="420" y="570" width="120" height="30" as="geometry" />
        </mxCell>
        <mxCell id="unGdx2NInlWbnndOkcG5-39" value="state" style="text;html=1;strokeColor=default;fillColor=none;align=center;verticalAlign=middle;whiteSpace=wrap;rounded=0;" parent="1" vertex="1">
          <mxGeometry x="410" y="720" width="140" height="20" as="geometry" />
        </mxCell>
        <mxCell id="unGdx2NInlWbnndOkcG5-40" value="zip" style="text;html=1;strokeColor=default;fillColor=none;align=center;verticalAlign=middle;whiteSpace=wrap;rounded=0;" parent="1" vertex="1">
          <mxGeometry x="410" y="740" width="140" height="20" as="geometry" />
        </mxCell>
        <mxCell id="unGdx2NInlWbnndOkcG5-41" value="phone_number" style="text;html=1;strokeColor=default;fillColor=none;align=center;verticalAlign=middle;whiteSpace=wrap;rounded=0;" parent="1" vertex="1">
          <mxGeometry x="410" y="760" width="140" height="20" as="geometry" />
        </mxCell>
        <mxCell id="unGdx2NInlWbnndOkcG5-42" value="email" style="text;html=1;strokeColor=default;fillColor=none;align=center;verticalAlign=middle;whiteSpace=wrap;rounded=0;" parent="1" vertex="1">
          <mxGeometry x="410" y="780" width="140" height="20" as="geometry" />
        </mxCell>
        <mxCell id="unGdx2NInlWbnndOkcG5-43" value="hire_date" style="text;html=1;strokeColor=default;fillColor=none;align=center;verticalAlign=middle;whiteSpace=wrap;rounded=0;" parent="1" vertex="1">
          <mxGeometry x="410" y="800" width="140" height="20" as="geometry" />
        </mxCell>
        <mxCell id="unGdx2NInlWbnndOkcG5-44" value="manager_id" style="text;html=1;strokeColor=default;fillColor=none;align=center;verticalAlign=middle;whiteSpace=wrap;rounded=0;" parent="1" vertex="1">
          <mxGeometry x="410" y="820" width="140" height="20" as="geometry" />
        </mxCell>
        <mxCell id="unGdx2NInlWbnndOkcG5-45" value="termnation_date" style="text;html=1;strokeColor=default;fillColor=none;align=center;verticalAlign=middle;whiteSpace=wrap;rounded=0;" parent="1" vertex="1">
          <mxGeometry x="410" y="840" width="140" height="20" as="geometry" />
        </mxCell>
        <mxCell id="unGdx2NInlWbnndOkcG5-46" value="pay" style="text;html=1;strokeColor=default;fillColor=none;align=center;verticalAlign=middle;whiteSpace=wrap;rounded=0;" parent="1" vertex="1">
          <mxGeometry x="410" y="860" width="140" height="20" as="geometry" />
        </mxCell>
        <mxCell id="unGdx2NInlWbnndOkcG5-47" value="version" style="text;html=1;strokeColor=default;fillColor=none;align=center;verticalAlign=middle;whiteSpace=wrap;rounded=0;" parent="1" vertex="1">
          <mxGeometry x="410" y="880" width="140" height="20" as="geometry" />
        </mxCell>
        <mxCell id="unGdx2NInlWbnndOkcG5-48" value="action_date" style="text;html=1;strokeColor=default;fillColor=none;align=center;verticalAlign=middle;whiteSpace=wrap;rounded=0;" parent="1" vertex="1">
          <mxGeometry x="410" y="920" width="140" height="20" as="geometry" />
        </mxCell>
        <mxCell id="unGdx2NInlWbnndOkcG5-49" value="action_type" style="text;html=1;strokeColor=default;fillColor=none;align=center;verticalAlign=middle;whiteSpace=wrap;rounded=0;" parent="1" vertex="1">
          <mxGeometry x="410" y="900" width="140" height="20" as="geometry" />
        </mxCell>
        <mxCell id="unGdx2NInlWbnndOkcG5-50" value="action_user" style="text;html=1;strokeColor=default;fillColor=none;align=center;verticalAlign=middle;whiteSpace=wrap;rounded=0;" parent="1" vertex="1">
          <mxGeometry x="410" y="940" width="140" height="20" as="geometry" />
        </mxCell>
      </root>
    </mxGraphModel>
  </diagram>
</mxfile>
